<svg width="19" height="19" viewBox="0 0 19 19" fill="none" xmlns="http://www.w3.org/2000/svg">
<path d="M17.0001 12C16.9081 12.064 15.0001 14.083 15.0001 15.5C15.0001 16.994 15.9491 17.948 17.0001 18C17.9061 18.044 19.0001 17.109 19.0001 15.5C19.0001 14 17.0921 12.064 17.0001 12ZM6.58606 18C6.96406 18.378 7.46606 18.586 8.00006 18.586C8.53406 18.586 9.03606 18.378 9.41406 18L16.4141 11L15.7071 10.293L8.00006 2.58597L5.70706 0.292969L4.29306 1.70697L6.58606 3.99997L1.00006 9.58597C0.622062 9.96397 0.414062 10.466 0.414062 11C0.414062 11.534 0.622062 12.036 1.00006 12.414L6.58606 18ZM8.00006 5.41397L13.5861 11H2.41406L8.00006 5.41397Z" fill="url(#paint0_linear)"/>
<defs>
<linearGradient id="paint0_linear" x1="9.70706" y1="0.292969" x2="9.70706" y2="18.586" gradientUnits="userSpaceOnUse">
<stop stop-color="#FAFF00"/>
<stop offset="0.576042" stop-color="#00E84F" stop-opacity="0.860688"/>
<stop offset="1" stop-color="white"/>
</linearGradient>
</defs>
</svg>
